<?xml version="1.0" encoding="utf-8"?>
<!-- Generator: Adobe Illustrator 26.0.2, SVG Export Plug-In . SVG Version: 6.00 Build 0)  -->
<svg version="1.1" id="Calque_1" xmlns="http://www.w3.org/2000/svg" xmlns:xlink="http://www.w3.org/1999/xlink" x="0px" y="0px"
	 viewBox="0 0 176.07 40" style="enable-background:new 0 0 176.07 40;" xml:space="preserve">
<style type="text/css">
	.st0{fill:#EF7900;}
	.st1{fill:#417BBE;}
</style>
<g>
	<g>
		<g>
			<path class="st0" d="M71.04,14.53v11.01h-3.56v-1.79c-0.5,0.76-1.08,1.32-1.72,1.67c-0.65,0.35-1.39,0.53-2.23,0.53
				c-1.45,0-2.62-0.53-3.51-1.61c-0.89-1.07-1.33-2.5-1.33-4.3c0-1.78,0.46-3.2,1.38-4.26c0.92-1.06,2.16-1.59,3.73-1.59
				c0.83,0,1.55,0.18,2.15,0.53c0.6,0.35,1.12,0.89,1.55,1.62v-1.81H71.04z M67.63,20.03c0-0.84-0.23-1.51-0.69-2.02
				c-0.46-0.51-1.08-0.76-1.88-0.76c-0.78,0-1.4,0.25-1.86,0.74c-0.46,0.5-0.69,1.17-0.69,2.04c0,0.85,0.23,1.52,0.69,2.01
				c0.46,0.5,1.08,0.74,1.86,0.74c0.79,0,1.41-0.25,1.87-0.74C67.4,21.56,67.63,20.88,67.63,20.03z"/>
			<path class="st0" d="M72.55,24.62l0.81-2.95c0.57,0.48,1.19,0.86,1.86,1.13c0.68,0.27,1.36,0.4,2.06,0.4
				c0.48,0,0.85-0.08,1.11-0.23c0.26-0.15,0.39-0.38,0.39-0.69c0-0.47-0.51-0.83-1.54-1.09l-0.81-0.21
				c-1.15-0.31-1.99-0.73-2.52-1.25c-0.53-0.52-0.8-1.2-0.8-2.02c0-1.07,0.4-1.92,1.21-2.56c0.81-0.64,1.89-0.96,3.26-0.96
				c0.38,0,0.73,0.02,1.06,0.05c0.33,0.04,0.69,0.1,1.09,0.2c0.72,0.15,1.47,0.41,2.25,0.76l-0.81,2.68
				c-0.5-0.34-1.02-0.61-1.57-0.79c-0.55-0.19-1.08-0.28-1.59-0.28c-0.44,0-0.77,0.07-1,0.21c-0.23,0.14-0.34,0.34-0.34,0.6
				c0,0.39,0.51,0.72,1.53,0.99l0.52,0.14c1.34,0.38,2.28,0.83,2.81,1.35c0.53,0.52,0.79,1.22,0.79,2.11c0,1.12-0.43,2.02-1.3,2.72
				c-0.87,0.7-2.01,1.04-3.43,1.04c-0.97,0-1.86-0.11-2.69-0.34c-0.44-0.12-0.84-0.25-1.2-0.4C73.31,25.06,72.94,24.86,72.55,24.62z
				"/>
			<path class="st0" d="M82.95,24.62l0.81-2.95c0.57,0.48,1.19,0.86,1.86,1.13c0.68,0.27,1.36,0.4,2.06,0.4
				c0.48,0,0.85-0.08,1.11-0.23c0.26-0.15,0.39-0.38,0.39-0.69c0-0.47-0.51-0.83-1.54-1.09l-0.81-0.21
				c-1.15-0.31-1.99-0.73-2.52-1.25c-0.53-0.52-0.8-1.2-0.8-2.02c0-1.07,0.4-1.92,1.21-2.56c0.81-0.64,1.89-0.96,3.26-0.96
				c0.38,0,0.73,0.02,1.06,0.05c0.33,0.04,0.69,0.1,1.09,0.2c0.72,0.15,1.47,0.41,2.25,0.76l-0.81,2.68
				c-0.5-0.34-1.02-0.61-1.57-0.79c-0.55-0.19-1.08-0.28-1.59-0.28c-0.44,0-0.77,0.07-1,0.21c-0.23,0.14-0.34,0.34-0.34,0.6
				c0,0.39,0.51,0.72,1.53,0.99l0.52,0.14c1.34,0.38,2.28,0.83,2.81,1.35c0.53,0.52,0.79,1.22,0.79,2.11c0,1.12-0.43,2.02-1.3,2.72
				c-0.87,0.7-2.01,1.04-3.43,1.04c-0.97,0-1.86-0.11-2.69-0.34c-0.44-0.12-0.84-0.25-1.2-0.4C83.71,25.06,83.34,24.86,82.95,24.62z
				"/>
			<path class="st0" d="M106.05,20.07c0,0.79-0.15,1.54-0.46,2.24c-0.31,0.7-0.75,1.34-1.34,1.91c-0.59,0.57-1.26,1-2.02,1.3
				c-0.38,0.14-0.75,0.25-1.13,0.33s-0.78,0.11-1.22,0.11c-0.84,0-1.63-0.14-2.37-0.43c-0.74-0.29-1.4-0.72-1.98-1.29
				c-0.28-0.27-0.54-0.56-0.76-0.88c-0.22-0.32-0.41-0.65-0.57-1.02c-0.31-0.72-0.46-1.48-0.46-2.27c0-0.81,0.15-1.57,0.45-2.27
				c0.3-0.7,0.75-1.34,1.34-1.92c0.55-0.54,1.2-0.96,1.95-1.25c0.75-0.29,1.55-0.44,2.4-0.44c0.84,0,1.63,0.14,2.37,0.42
				c0.74,0.28,1.4,0.7,1.98,1.26s1.03,1.2,1.34,1.92C105.9,18.52,106.05,19.27,106.05,20.07z M102.2,20.07
				c0-0.81-0.21-1.45-0.62-1.93c-0.41-0.47-0.97-0.71-1.68-0.71c-0.71,0-1.26,0.24-1.68,0.71c-0.41,0.47-0.62,1.11-0.62,1.93
				s0.2,1.46,0.61,1.93c0.41,0.47,0.97,0.7,1.69,0.7c0.7,0,1.26-0.23,1.68-0.7C101.99,21.53,102.2,20.89,102.2,20.07z"/>
			<path class="st0" d="M107.29,30.41l3.1-6.54l-4.44-9.33h4.31l1.54,3.98c0.14,0.34,0.25,0.66,0.33,0.94
				c0.08,0.29,0.15,0.55,0.19,0.79c0.02-0.12,0.05-0.25,0.08-0.39c0.03-0.14,0.07-0.28,0.11-0.41l0.33-0.93l1.56-3.98h4.15
				l-6.92,15.87H107.29z"/>
			<path class="st0" d="M131.18,14.53v11.01h-3.56v-1.79c-0.5,0.76-1.08,1.32-1.72,1.67c-0.65,0.35-1.39,0.53-2.23,0.53
				c-1.45,0-2.62-0.53-3.51-1.61c-0.89-1.07-1.33-2.5-1.33-4.3c0-1.78,0.46-3.2,1.38-4.26c0.92-1.06,2.16-1.59,3.73-1.59
				c0.83,0,1.55,0.18,2.15,0.53c0.6,0.35,1.12,0.89,1.55,1.62v-1.81H131.18z M127.76,20.03c0-0.84-0.23-1.51-0.69-2.02
				c-0.46-0.51-1.08-0.76-1.88-0.76c-0.78,0-1.4,0.25-1.86,0.74c-0.46,0.5-0.69,1.17-0.69,2.04c0,0.85,0.23,1.52,0.69,2.01
				c0.46,0.5,1.08,0.74,1.86,0.74c0.79,0,1.41-0.25,1.87-0.74C127.53,21.56,127.76,20.88,127.76,20.03z"/>
			<path class="st1" d="M148.2,18.15c-0.36-0.32-0.72-0.55-1.08-0.71c-0.36-0.16-0.73-0.24-1.11-0.24c-0.76,0-1.37,0.25-1.83,0.76
				c-0.46,0.51-0.69,1.19-0.69,2.06c0,0.84,0.24,1.51,0.71,2.01c0.47,0.5,1.11,0.75,1.91,0.75c0.39,0,0.75-0.08,1.1-0.23
				c0.35-0.15,0.68-0.39,0.99-0.72v3.36c-0.44,0.25-0.9,0.44-1.38,0.57c-0.48,0.13-0.96,0.19-1.45,0.19c-1.69,0-3.07-0.54-4.12-1.63
				c-1.05-1.08-1.58-2.51-1.58-4.28c0-1.72,0.54-3.12,1.61-4.22c1.07-1.09,2.45-1.64,4.13-1.64c0.55,0,1.06,0.05,1.51,0.16
				c0.45,0.11,0.88,0.28,1.28,0.52V18.15z"/>
			<path class="st1" d="M161.99,14.53v11.01h-3.56v-1.79c-0.5,0.76-1.08,1.32-1.72,1.67c-0.65,0.35-1.39,0.53-2.23,0.53
				c-1.45,0-2.62-0.53-3.51-1.61c-0.89-1.07-1.33-2.5-1.33-4.3c0-1.78,0.46-3.2,1.38-4.26c0.92-1.06,2.16-1.59,3.73-1.59
				c0.83,0,1.55,0.18,2.15,0.53c0.6,0.35,1.12,0.89,1.55,1.62v-1.81H161.99z M158.58,20.03c0-0.84-0.23-1.51-0.69-2.02
				c-0.46-0.51-1.08-0.76-1.88-0.76c-0.78,0-1.4,0.25-1.86,0.74c-0.46,0.5-0.69,1.17-0.69,2.04c0,0.85,0.23,1.52,0.69,2.01
				c0.46,0.5,1.08,0.74,1.86,0.74c0.79,0,1.41-0.25,1.87-0.74C158.35,21.56,158.58,20.88,158.58,20.03z"/>
			<path class="st1" d="M164.54,25.54V14.53h3.66v2.59c0.37-0.94,0.89-1.65,1.55-2.13c0.66-0.47,1.45-0.71,2.38-0.71
				c0.07,0,0.14,0,0.21,0c0.07,0,0.15,0,0.25,0c0.09,0,0.19,0,0.28,0c0.09,0.03,0.15,0.05,0.2,0.07l-0.37,3.51
				c-0.1-0.03-0.21-0.06-0.32-0.09c-0.11-0.03-0.25-0.05-0.43-0.07c-0.17-0.02-0.3-0.04-0.39-0.04c-0.09,0-0.16,0-0.21,0
				c-0.94,0-1.67,0.29-2.19,0.87c-0.51,0.58-0.77,1.4-0.77,2.46v4.56H164.54z"/>
		</g>
	</g>
	<g>
		<path class="st1" d="M49.5,10.98h-4.03c-0.85,0-1.54,0.68-1.56,1.52l-2.05-5.41c-0.68-1.8-2.41-3-4.34-3H15.85
			c-1.93,0-3.66,1.19-4.34,3L9.46,12.5c-0.02-0.84-0.71-1.52-1.56-1.52H3.87c-0.86,0-1.56,0.7-1.56,1.56c0,1.54,1.25,2.79,2.79,2.79
			h2.98c-0.28,0.28,0.04-0.02-3.46,2.93c-1.94,1.63-1.47,3.85-1.54,4.28c0,1.46,0,8.22,0,11.57c0,1.08,0.87,1.95,1.95,1.95H9.2
			c1.08,0,1.95-0.87,1.95-1.95v-3.44h31.07v3.44c0,1.08,0.87,1.95,1.95,1.95h4.16c1.08,0,1.95-0.87,1.95-1.95c0-4.1,0-7.7,0-12.55
			c0-3.06-2.73-3.93-5-6.23h2.98C51.34,15.33,52.04,10.98,49.5,10.98z M13.7,7.92c0.34-0.89,1.2-1.49,2.16-1.49h21.66
			c0.95,0,1.82,0.6,2.16,1.49c0.81,2.14,2.58,6.85,2.83,7.42H10.86C11.11,14.76,12.34,11.47,13.7,7.92z M10.14,25.21
			c-1.47,0-2.66-1.19-2.66-2.66c0-1.47,1.19-2.67,2.66-2.67s2.66,1.19,2.66,2.67C12.8,24.02,11.61,25.21,10.14,25.21z M45.89,22.55
			c0,1.47-1.19,2.66-2.66,2.66c-1.47,0-2.67-1.19-2.67-2.66c0-1.47,1.19-2.67,2.67-2.67C44.7,19.88,45.89,21.08,45.89,22.55z"/>
		<g>
			<g>
				<path class="st0" d="M26.92,20C26.78,20,26.63,20,26.48,20c-0.63-0.3-1.04-0.69-1.45-1.25l-3.05,1.73
					c-0.35,0.19-0.57,0.56-0.57,0.96v0.81c1.06,1.81,3.02,3.03,5.27,3.03c2.28,0,4.26-1.25,5.31-3.1v-0.74
					c0-0.4-0.22-0.77-0.57-0.96c-0.4-0.22-3.05-1.73-3.05-1.73C27.97,19.31,27.56,19.7,26.92,20z"/>
				<path class="st0" d="M26.7,13.28c-1.3,0-2.35,1.05-2.35,2.35c0,1.3,1.05,3.8,2.35,3.8c1.3,0,2.35-2.5,2.35-3.8
					C29.05,14.33,28,13.28,26.7,13.28z"/>
				<path class="st0" d="M34.68,13.41c-1.05-1.89-2.74-3.36-4.78-4.13c-0.05,0.06-0.11,0.13-0.14,0.18
					c-0.21,0.29-0.45,0.47-0.65,0.5C29,9.98,28.9,9.96,28.83,9.9c-0.09-0.07-0.14-0.17-0.15-0.28c-0.12,0.07-0.25,0.13-0.38,0.13
					c-0.12,0-0.22-0.03-0.31-0.11c-0.16-0.13-0.2-0.34-0.12-0.61c-0.14,0.04-0.27,0.01-0.38-0.07c-0.07-0.05-0.11-0.14-0.14-0.23
					c-0.01-0.06-0.02-0.13-0.01-0.21c0-0.02,0.01-0.04,0.01-0.06c0-0.01,0-0.01,0-0.02c-0.06,0-0.12-0.01-0.18-0.05
					c-0.11-0.07-0.16-0.19-0.17-0.32c-0.42-0.23-0.68-0.39-0.77-0.48c-0.15-0.08-0.3-0.09-0.44-0.01c-0.12,0.06-0.2,0.17-0.23,0.23
					c0.26,0.14,0.86,0.48,1.12,0.63c0.04,0.02,0.06,0.03,0.07,0.04c0.07,0.04-0.07,0.27-0.14,0.22c-0.09-0.05-0.26-0.15-0.45-0.25
					c-0.3-0.17-0.64-0.36-0.78-0.44c0,0,0,0,0,0C25.2,7.89,25,7.96,24.88,8.05c-0.09,0.08-0.18,0.21-0.14,0.36
					C24.81,8.46,24.9,8.52,25,8.58c0.11,0.07,0.24,0.14,0.37,0.21c0.42,0.23,0.86,0.43,0.87,0.44c0.07,0.03-0.05,0.27-0.11,0.24
					c-0.04-0.02-0.68-0.32-1.17-0.61c-0.12-0.07-0.23-0.14-0.32-0.21c-0.01-0.01-0.03-0.02-0.04-0.03
					c-0.09,0.02-0.17,0.06-0.24,0.09c-0.1,0.06-0.16,0.12-0.19,0.2c-0.01,0.04-0.02,0.08-0.01,0.13c0.01,0.08,0.05,0.15,0.11,0.22
					c0,0,0,0,0,0c0,0,0,0,0,0c0.03,0.04,0.23,0.16,0.41,0.26c0.58,0.34,1.47,0.86,1.88,1.51c0.05,0.09,0.1,0.17,0.13,0.27
					c0.01,0.02,0.02,0.05,0.02,0.07l0.52-0.05l0.1-0.01c0.07-0.09,0.13-0.16,0.2-0.23c0.62-0.61,1.28-0.51,1.51-0.35
					c0.16,0.11,0.16,0.26,0.1,0.36c-0.07,0.1-0.15,0.21-0.23,0.32c-0.06,0.07-0.11,0.15-0.17,0.22c-0.01,0.02-0.03,0.03-0.04,0.05
					c-0.05,0.07-0.11,0.14-0.16,0.21c0.08-0.01,0.18-0.01,0.31-0.02c0.08,0,0.17,0,0.26,0c0.08,0,0.16,0,0.23,0
					c0.32,0,0.58,0.01,0.58,0.01c0.02,0,0.03,0,0.05,0.01c0,0,0.01,0,0.01,0.01c1.06,0.3,1.91,0.81,2.58,1.48
					c0.72,0.83,1.26,1.81,1.58,2.89c0.19,0.74,0.3,1.55,0.31,2.43c-0.12,4.21-3.56,7.58-7.8,7.58c-2.09,0-3.98-0.82-5.38-2.15l0,0
					c-1.14-1.13-2.06-2.7-2.34-4.53l0,0c0,0-0.03-0.14-0.05-0.39c-0.02-0.24-0.04-0.49-0.04-0.74c0-1.92,0.73-4.1,1.88-5.46
					c0.76-0.68,1.81-1.17,3.26-1.32l-0.05,0.07c0.09-0.01,0.18-0.01,0.26,0.01c0.06,0.01,0.11,0.03,0.16,0.05
					c0.27,0.14,0.56,0.33,0.81,0.5c0.29,0.2,0.62,0.42,0.77,0.44c0.4-0.1,0.76-0.17,1.08-0.23c0.4-0.08,0.85-0.17,0.91-0.25
					c0.12-0.21,0.31-0.47,0.52-0.74c0.01-0.01,0.01-0.02,0.02-0.03c0.05-0.07,0.1-0.13,0.15-0.2c0.09-0.12,0.18-0.24,0.26-0.35
					c-0.03-0.03-0.11-0.08-0.26-0.09c-0.14-0.01-0.43,0-0.77,0.26c-0.08,0.06-0.16,0.14-0.25,0.23c-0.04,0.05-0.08,0.1-0.13,0.15
					l-0.04,0.05l-0.96,0.08l-0.03-0.11c-0.02-0.08-0.05-0.16-0.08-0.23c-0.04-0.09-0.1-0.17-0.16-0.26
					c-0.41-0.55-1.22-1.01-1.7-1.29c-0.28-0.16-0.42-0.24-0.48-0.31c0,0,0,0,0,0c0,0,0,0,0,0c0,0,0,0,0,0c0,0,0,0,0,0
					c-0.08-0.1-0.14-0.21-0.16-0.32c-2.23,0.71-4.08,2.26-5.2,4.26c-0.94,1.47-1.49,3.22-1.49,5.1c0,4.45,3.06,8.18,7.19,9.2
					l2.28,2.28l2.28-2.28c4.13-1.02,7.19-4.75,7.19-9.2C36.16,16.62,35.61,14.88,34.68,13.41z"/>
				<path class="st0" d="M27.63,8.48c0,0.02-0.01,0.04-0.01,0.07c-0.01,0.1,0.01,0.17,0.04,0.2c0,0,0,0,0,0
					c0.02,0.01,0.06,0.04,0.14,0.02c0.02-0.01,0.04-0.01,0.07-0.03c0.1-0.05,0.18-0.13,0.2-0.16l0,0l0.03-0.04l0.55-0.69
					c0,0,0.01-0.01,0.01-0.01c0.08-0.1,0.06-0.24-0.05-0.33c-0.06-0.04-0.12-0.06-0.19-0.06c-0.06,0-0.12,0.03-0.15,0.08l-0.57,0.75
					C27.69,8.32,27.65,8.39,27.63,8.48z"/>
				<path class="st0" d="M28.3,8.74c-0.02,0.03-0.03,0.06-0.05,0.09c-0.12,0.23-0.21,0.5-0.08,0.6l0.01,0
					c0.04,0.03,0.08,0.05,0.13,0.05c0.18-0.01,0.41-0.2,0.52-0.34l0.13-0.16l0.18-0.23l0.26-0.32c0.1-0.12,0.06-0.3-0.07-0.41
					c-0.07-0.05-0.15-0.08-0.24-0.08c-0.07,0-0.15,0.03-0.2,0.07l-0.46,0.58L28.3,8.74z"/>
				<path class="st0" d="M27.33,8.16c0.08,0.05,0.2-0.07,0.22-0.09l0.42-0.56c0-0.01,0.01-0.02,0.01-0.02
					c0.04-0.06,0.03-0.14-0.04-0.19c-0.06-0.05-0.15-0.05-0.19,0.01l-0.43,0.59C27.27,7.99,27.27,8.13,27.33,8.16z"/>
				<path class="st0" d="M29.23,9.06L29.03,9.3C28.99,9.38,28.89,9.6,29,9.69c0.02,0.01,0.05,0.01,0.07,0.01
					c0.05-0.01,0.23-0.05,0.47-0.39c0.03-0.03,0.06-0.08,0.09-0.12C29.71,9.1,29.79,9,29.81,8.97c0,0,0.01-0.01,0.01-0.01
					c0.05-0.07,0.03-0.18-0.05-0.24c-0.08-0.07-0.2-0.06-0.27-0.01l-0.1,0.13L29.23,9.06z"/>
				<path class="st0" d="M27.09,7.76l0.01-0.02l0.18-0.24c-0.1-0.04-0.24-0.09-0.37-0.15c-0.14-0.06-0.26-0.02-0.32,0
					c-0.06,0.02-0.09,0.05-0.12,0.08c0.1,0.07,0.35,0.22,0.6,0.36C27.07,7.78,27.08,7.77,27.09,7.76z"/>
			</g>
		</g>
	</g>
</g>
</svg>
